M48
; DRILL file {KiCad 7.0.9} date Fri 22 Dec 2023 07:41:01 AM EST
; FORMAT={-:-/ absolute / inch / decimal}
; #@! TF.CreationDate,2023-12-22T07:41:01-05:00
; #@! TF.GenerationSoftware,Kicad,Pcbnew,7.0.9
; #@! TF.FileFunction,Plated,1,2,PTH
FMAT,2
INCH
; #@! TA.AperFunction,Plated,PTH,ViaDrill
T1C0.0157
; #@! TA.AperFunction,Plated,PTH,ComponentDrill
T2C0.0315
; #@! TA.AperFunction,Plated,PTH,ComponentDrill
T3C0.0394
; #@! TA.AperFunction,Plated,PTH,ComponentDrill
T4C0.0433
; #@! TA.AperFunction,Plated,PTH,ComponentDrill
T5C0.0472
; #@! TA.AperFunction,Plated,PTH,ComponentDrill
T6C0.0591
; #@! TA.AperFunction,Plated,PTH,ComponentDrill
T7C0.0669
; #@! TA.AperFunction,Plated,PTH,ViaDrill
T8C0.1024
; #@! TA.AperFunction,Plated,PTH,ViaDrill
T9C0.1181
%
G90
G05
T1
X1.9291Y-1.8504
X1.9291Y-2.0472
X1.9291Y-2.6378
X1.9291Y-2.8346
X1.9291Y-3.7402
X1.9291Y-3.937
X1.9291Y-4.5276
X1.9291Y-4.7244
X2.5197Y-2.6772
X2.5197Y-4.6457
X2.5197Y-4.8425
X2.5591Y-3.8583
X2.874Y-2.0866
X3.0709Y-4.4094
X3.0709Y-4.6457
X3.0709Y-4.8425
X3.1102Y-3.2677
X3.1102Y-3.8583
X3.5827Y-1.6535
X3.5827Y-1.9
X3.5827Y-2.0969
X3.5827Y-2.3622
X3.5827Y-2.65
X3.5827Y-2.8469
X3.5827Y-3.189
X3.5827Y-3.3858
X3.5827Y-3.622
X3.5827Y-3.8976
X3.5827Y-4.0945
X3.5827Y-4.3307
X3.5827Y-4.6063
X3.5827Y-4.8031
X4.0551Y-3.2677
X4.0551Y-3.8583
X4.0945Y-4.4094
X4.0945Y-4.6457
X4.0945Y-4.8425
X4.685Y-2.6772
X4.685Y-3.8583
X4.685Y-4.6457
X4.685Y-4.8425
X4.8425Y-3.189
X5.2362Y-1.8898
X5.2362Y-2.0866
X5.2362Y-2.5984
X5.2362Y-2.7953
X5.2362Y-3.7402
X5.2362Y-3.937
X5.2362Y-4.5669
X5.2362Y-4.7638
X6.2992Y-2.5591
X6.2992Y-3.1496
X6.2992Y-3.7402
X6.2992Y-4.5276
X6.4961Y-1.7717
X6.4961Y-4.9213
X6.5945Y-4.1339
X6.6929Y-2.3622
X6.6929Y-3.7402
X6.6929Y-4.9213
X6.8898Y-1.5748
X6.8898Y-3.1496
X7.0866Y-3.7402
X7.185Y-4.0354
X7.185Y-4.2323
X7.2835Y-1.5748
X7.4803Y-2.1654
X7.4803Y-3.5433
X7.4803Y-4.1339
X7.4803Y-4.5276
X7.4803Y-4.9213
X7.6772Y-4.1339
X7.6772Y-4.3307
X7.6772Y-4.9213
X7.874Y-3.3465
X7.874Y-4.7244
X7.874Y-4.9213
X8.0709Y-1.7717
X8.0709Y-2.1654
X8.0709Y-4.9213
X8.2677Y-1.5748
X8.2677Y-2.1654
X8.2677Y-2.5591
X8.2677Y-2.9528
X8.2677Y-3.5433
X8.2677Y-3.7402
X8.2677Y-4.1339
X8.2677Y-4.7244
X8.2677Y-4.9213
X8.4646Y-4.9213
X8.6614Y-4.2323
X8.7598Y-4.0354
X8.8583Y-2.1654
X8.8583Y-2.5591
X8.8583Y-2.9528
X8.8583Y-3.3465
X8.8583Y-3.5433
X8.8583Y-4.3307
X8.8583Y-4.9213
X9.0551Y-1.9685
X9.0551Y-3.937
X9.0551Y-4.1339
X9.0551Y-4.9213
X9.252Y-3.7402
X9.252Y-4.1339
X9.252Y-4.5276
X9.252Y-4.9213
X9.4488Y-1.7717
X9.4488Y-2.3622
X9.4488Y-2.9528
X9.4488Y-3.5433
X9.4488Y-4.5276
T2
X6.4504Y-3.8976
X6.7717Y-4.2126
X6.7717Y-4.4094
X6.8504Y-3.8976
X6.8866Y-4.4094
X7.0079Y-3.8976
X7.2047Y-3.8976
X7.2866Y-4.4094
X7.3953Y-4.0157
X7.4016Y-4.2126
X7.4016Y-4.4094
X7.5984Y-3.8189
X7.752Y-2.8894
X7.7559Y-2.3228
X7.7953Y-3.8189
X7.7953Y-4.0157
X7.8504Y-2.8894
X7.9528Y-2.3228
X8.0252Y-3.8976
X8.3465Y-4.2126
X8.3465Y-4.4094
X8.4252Y-3.8976
X8.4583Y-4.4094
X8.5827Y-3.8976
X8.7795Y-3.8976
X8.8583Y-4.4094
X8.9701Y-4.0157
X8.9764Y-4.2126
X8.9764Y-4.4094
X9.1732Y-3.8189
X9.3701Y-3.8189
X9.3701Y-4.0157
T3
X6.7079Y-2.126
X6.8079Y-2.126
X6.9079Y-2.126
X7.0079Y-2.126
X8.552Y-1.6089
X8.552Y-1.7089
X8.552Y-1.8089
X8.552Y-1.9089
X8.552Y-2.0089
X8.552Y-2.1089
X8.552Y-2.2089
X8.552Y-2.3089
X8.552Y-2.4089
X8.552Y-2.5089
X8.552Y-2.6089
X8.552Y-2.7089
X8.552Y-2.8089
X8.552Y-2.9089
X8.552Y-3.0089
X8.552Y-3.1089
X8.552Y-3.2089
X8.552Y-3.3089
X8.552Y-3.4089
X8.552Y-3.5089
X9.252Y-1.6089
X9.252Y-1.7089
X9.252Y-1.8089
X9.252Y-1.9089
X9.252Y-2.0089
X9.252Y-2.1089
X9.252Y-2.2089
X9.252Y-2.3089
X9.252Y-2.4089
X9.252Y-2.5089
X9.252Y-2.6089
X9.252Y-2.7089
X9.252Y-2.8089
X9.252Y-2.9089
X9.252Y-3.0089
X9.252Y-3.1089
X9.252Y-3.2089
X9.252Y-3.3089
X9.252Y-3.4089
X9.252Y-3.5089
T4
X2.45Y-1.8
X4.75Y-1.8
X7.7528Y-2.5894
X7.8528Y-2.5894
X7.9528Y-2.5894
X8.189Y-1.9685
X8.189Y-2.3685
T5
X1.9559Y-2.4
X1.9559Y-3.0
X1.9559Y-3.35
X1.9559Y-3.5469
X1.9559Y-4.15
X1.9559Y-4.35
X2.5559Y-2.4
X2.5559Y-3.0
X2.5559Y-3.35
X2.5559Y-3.5469
X2.5559Y-4.15
X2.5559Y-4.35
X2.7559Y-2.4
X2.7559Y-3.0
X2.7559Y-3.55
X2.7559Y-4.15
X2.9528Y-2.4
X2.9528Y-3.0
X2.9528Y-3.55
X2.9528Y-4.15
X3.2677Y-1.7031
X3.2677Y-2.0969
X3.2677Y-2.4531
X3.2677Y-2.8469
X3.8976Y-1.7031
X3.8976Y-2.0969
X3.8976Y-2.4531
X3.8976Y-2.8469
X4.2057Y-3.55
X4.2057Y-4.15
X4.2126Y-2.4
X4.2126Y-3.0
X4.4026Y-3.55
X4.4026Y-4.15
X4.4094Y-2.4
X4.4094Y-3.0
X4.6057Y-2.4
X4.6057Y-3.0
X4.6057Y-3.35
X4.6057Y-3.5469
X4.6057Y-4.15
X4.6057Y-4.3469
X5.2057Y-2.4
X5.2057Y-3.0
X5.2057Y-3.35
X5.2057Y-3.5469
X5.2057Y-4.15
X5.2057Y-4.3469
T6
X2.2522Y-1.6022
X2.2522Y-1.9978
X2.6478Y-1.6022
X2.6478Y-1.9978
X2.7953Y-4.7638
X4.3701Y-4.7638
X4.5522Y-1.6022
X4.5522Y-1.9978
X4.9478Y-1.6022
X4.9478Y-1.9978
X7.0866Y-4.7638
X8.6614Y-4.7638
T7
X2.6953Y-4.6638
X2.6953Y-4.8638
X2.8953Y-4.6638
X2.8953Y-4.8638
X4.2701Y-4.6638
X4.2701Y-4.8638
X4.4701Y-4.6638
X4.4701Y-4.8638
X6.9866Y-4.6638
X6.9866Y-4.8638
X7.1866Y-4.6638
X7.1866Y-4.8638
X8.5614Y-4.6638
X8.5614Y-4.8638
X8.7614Y-4.6638
X8.7614Y-4.8638
T8
X6.4717Y-2.1654
X6.4717Y-3.0315
X7.2984Y-2.1654
X7.2984Y-3.0315
T9
X1.9291Y-1.6142
X1.9291Y-4.9213
X5.2362Y-1.6142
X5.2362Y-4.9213
X6.2205Y-1.6142
X6.2205Y-4.9213
X9.5276Y-1.6142
X9.5276Y-4.9213
T2
G00X7.685Y-1.878
M15
G01X7.685Y-1.9646
M16
G05
G00X7.9173Y-1.811
M15
G01X7.8307Y-1.811
M16
G05
G00X7.9252Y-2.0394
M15
G01X7.8228Y-2.0394
M16
G05
T0
M30
